<svg width="97" height="50" viewBox="0 0 97 50" fill="none" xmlns="http://www.w3.org/2000/svg">
<g clip-path="url(#clip0_2500_966)">
<path d="M18.9708 7.51205C20.3118 3.14671 24.6468 0.591755 29.0218 0.0566063C32.5113 -0.151314 36.3023 0.38829 39.0618 2.68532C40.9563 4.12591 41.6808 6.48235 42.3363 8.65661C43.4073 8.65661 44.4818 8.68136 45.5558 8.75562C45.7353 5.95859 48.1558 3.84473 50.6668 2.93284C52.2213 2.30413 53.7008 3.18037 55.0613 3.83878C56.2178 3.28433 57.2408 2.22987 58.6363 2.42393C59.8318 2.28977 61.0308 3.42789 62.1668 2.76057C63.8513 1.83482 66.0312 1.5477 67.7178 2.63185C69.4812 3.4477 70.0823 5.43383 70.5418 7.15166C74.0818 5.92888 78.3258 5.67146 81.4508 8.0675C82.3658 7.66651 83.2713 7.24077 84.1763 6.81007C84.8318 3.81502 88.1558 1.84968 91.1253 2.62195C94.4092 3.31997 96.5342 7.42393 94.4007 10.2705C94.9108 12.0031 95.0512 13.8546 94.3802 15.5724C95.7008 16.8695 97.1363 18.4388 96.8258 20.4388C97.0708 23.1467 95.0452 25.3002 92.9567 26.7254C94.2967 28.7452 93.4713 31.1665 94.2458 33.3299C94.7517 35.4091 94.3608 37.8101 92.6718 39.2809C90.3512 41.7368 86.6718 41.3744 83.6063 41.9304C83.0468 41.5734 82.4873 41.2175 81.9277 40.8754C78.8077 42.3299 74.9523 42.5977 72.0823 40.4338C70.9523 41.4942 69.5928 42.2566 68.1028 42.6927C66.5773 44.766 64.5688 46.8413 61.9073 47.3017C59.3368 47.3918 57.5468 45.0992 57.0868 42.7927C54.5068 43.5947 51.8473 43.2338 49.3368 42.3764C47.1408 44.1195 44.0923 44.3264 41.4868 43.4601C40.3723 45.6135 38.8023 47.5888 36.5608 48.6724C31.7808 51.0383 25.2113 50.2472 21.7808 45.9551C18.9163 42.4551 19.3858 36.9799 22.7608 33.9645C22.2608 32.8809 21.8753 31.7512 21.6663 30.5838C20.9908 30.3858 20.3223 30.1819 19.6558 29.9898C19.0158 30.3215 18.3748 30.6531 17.7408 30.9903C14.3553 31.0007 10.9308 30.6586 7.61575 31.5309C6.68075 30.8665 5.56525 30.3625 4.95075 29.3621C4.37075 28.3373 4.49075 27.1343 4.46125 26.0101C0.131253 24.7526 -1.27425 18.7625 1.73125 15.5843C3.59175 13.5987 6.47575 13.272 9.06075 13.3903C10.6963 12.6031 12.6313 11.5487 14.3808 12.7517C16.5768 13.7026 16.2663 16.4002 17.3913 18.1239C19.0623 19.2274 20.9313 17.6734 22.7323 17.6685C19.1058 15.7898 18.0958 11.2007 18.9708 7.51205Z" fill="#010102"/>
<path d="M27.689 3.50309C30.6185 2.6417 33.985 2.70606 36.6585 4.28031C39.483 5.83477 40.398 9.95853 38.463 12.5328C37.6585 13.5922 36.3185 14.0031 35.1425 14.5026C36.5775 18.2501 38.7925 22.4976 42.963 23.7066C45.3725 24.3556 47.264 21.9991 49.6025 22.2214C50.907 22.2551 50.8075 23.8694 50.9175 24.7897C48.753 28.0863 44.053 28.6605 40.673 27.012C37.2835 25.2947 35.099 21.9234 33.7275 18.5125C33.1825 17.1511 32.742 15.759 32.2785 14.3739C32.0625 14.4046 31.6225 14.458 31.4085 14.4877C31.459 15.3095 31.514 16.1363 31.5735 16.963C32.104 17.2001 32.633 17.4382 33.1675 17.6798C33.032 18.2887 32.8875 18.9041 32.733 19.5115C31.764 21.1907 30.2925 22.5412 28.5825 23.4615C28.093 23.0006 27.4775 22.6486 27.157 22.0496C27.5625 20.9224 28.4615 19.9719 28.501 18.7229C28.572 16.5744 28.266 14.4308 28.306 12.2823C28.3605 11.0051 27.4415 10.015 26.761 9.03972C27.8205 7.62388 29.6255 7.8714 31.19 7.90606C31.346 8.17338 31.505 8.44071 31.67 8.71299C31.4545 9.84665 31.3605 10.9942 31.3205 12.1476C32.746 12.1427 34.4855 12.3259 35.4145 10.9942C36.8745 9.38031 35.5195 6.87635 33.6345 6.31695C30.734 5.34071 26.5485 6.05457 25.3895 9.23279C25.8745 11.0298 27.6645 12.3219 27.545 14.2773C26.775 14.564 25.96 15.2328 25.1155 14.7773C22.751 13.5694 21.9455 10.5189 22.71 8.12883C23.3095 5.79962 25.4345 4.14616 27.689 3.50309Z" fill="#F9FCFA"/>
<path d="M64.5293 5.08199C65.2993 4.80377 66.1293 4.98793 66.9298 5.00773C67.6053 6.20575 68.0493 8.04238 66.7848 9.01268C65.7848 9.39436 64.3103 9.33446 63.8553 8.2008C63.1253 7.1711 63.7848 5.89387 64.5293 5.08199Z" fill="#F4FAF9"/>
<path d="M49.3845 8.14676C50.029 6.78538 51.4695 6.06261 52.7935 5.4834C54.5945 9.54776 53.5585 14.1468 54.3735 18.4091C54.819 18.9289 55.3335 19.3943 55.8285 19.8794C55.843 20.1463 55.8685 20.6864 55.883 20.9537C54.138 21.7705 52.1635 21.5577 50.298 21.4289C50.2825 21.1275 50.258 20.5176 50.2435 20.2161C50.5985 19.6765 50.9585 19.1369 51.233 18.5537C51.1625 15.623 50.7585 12.7062 50.8125 9.77152C50.3345 9.24082 49.0895 9.09676 49.3845 8.14676Z" fill="#F8FCF9"/>
<path d="M56.25 7.27535C57.284 6.39416 58.341 5.45356 59.7195 5.17139C60.79 7.53277 60.5945 10.1862 60.85 12.711C61.04 14.9387 60.38 17.5961 62.205 19.3199C62.81 19.3199 63.415 19.3199 64.0255 19.3199C64.265 19.0382 64.741 18.4788 64.975 18.2016C64.989 16.706 64.989 15.2115 64.92 13.7204C64.475 13.6115 63.585 13.3996 63.14 13.2907C63.56 11.5036 65.17 10.4541 66.77 9.7996C67.8605 12.3145 67.344 15.1214 67.87 17.7551C68.404 18.3046 68.944 18.8541 69.4895 19.4036C69.4695 19.6461 69.435 20.1219 69.419 20.3595C67.8045 20.658 66.1635 20.7902 64.524 20.81C64.0135 20.4283 63.504 20.062 62.9985 19.6857C61.774 21.9239 58.794 21.2407 56.7485 20.7996C57.1835 19.6065 58.1885 18.5521 58.024 17.2046C57.9245 15.0615 57.774 12.9184 57.669 10.7749C57.5945 10.26 57.529 9.7501 57.4735 9.23921C56.415 9.05703 56.284 8.15654 56.25 7.27535Z" fill="#F8FCF9"/>
<path d="M88.2901 6.48819C89.3206 4.5476 93.0151 5.45849 92.4751 7.80998C91.7951 8.96839 90.4151 8.40404 89.3396 8.46839C90.4991 10.0228 92.7291 11.4486 91.9751 13.6813C91.0801 15.7595 88.4601 15.9288 86.5491 16.5526C86.4496 16.7654 86.2486 17.1912 86.1486 17.4085C88.2141 18.458 90.4986 16.8144 92.5746 17.8144C93.5851 18.161 93.9601 19.2357 94.3786 20.1115C93.6686 23.5372 89.7846 24.8684 86.6436 24.6313C85.3086 24.3986 83.5436 24.2105 82.8486 22.8986C82.2236 21.7006 83.3686 20.2303 84.6636 20.4629C85.7936 21.2451 86.7686 22.2466 88.0186 22.8595C89.1636 22.4293 91.2336 22.2407 90.8586 20.5471C90.2391 19.6956 89.0836 19.8045 88.1636 19.8788C86.7781 19.9877 85.3886 19.9877 83.9986 19.9575C83.6386 19.6016 83.2831 19.2451 82.9281 18.8936C82.9226 18.4382 82.9226 17.9877 82.9226 17.5426C83.4736 17.0426 84.0276 16.5422 84.5926 16.0575C83.9571 15.3397 82.9876 14.7852 82.8176 13.7793C82.4531 12.6605 83.0986 11.6219 83.5221 10.6357C85.0476 9.81394 86.7176 9.35354 88.4321 9.12087C88.1896 8.27483 87.4846 7.24017 88.2901 6.48819Z" fill="#F6FAF7"/>
<path d="M74.9243 10.5819C76.1343 9.82943 77.7338 8.81953 79.1288 9.75022C80.6393 10.7651 80.4298 12.7403 80.5788 14.3096C80.5138 15.6463 81.9678 16.3002 82.0638 17.5968C80.8088 18.9185 79.5588 21.1522 77.3788 20.3542C77.7738 17.7601 78.4838 14.9334 77.2438 12.4581C76.4788 12.6522 75.7288 12.8542 74.9678 13.0473C74.7688 14.0908 74.3938 15.1364 74.5423 16.2146C74.6728 17.6552 76.0278 18.477 76.6928 19.6695C74.9533 20.5116 73.0138 20.5166 71.1273 20.4121C70.9323 20.175 70.5373 19.6948 70.3428 19.4567C70.8233 18.9616 71.3088 18.477 71.8178 18.0106C71.9533 17.6052 72.0988 17.2091 72.2378 16.8072C72.0188 15.7378 71.9173 14.6537 71.8573 13.5695C71.4823 13.5002 70.7428 13.3616 70.3678 13.2923C70.3778 12.5299 70.5668 11.8017 70.8478 11.1042C71.7028 10.5349 72.5523 9.95567 73.4273 9.40517C73.9668 10.0101 74.3363 10.7171 74.6968 11.4448C74.7548 11.2309 74.8703 10.8002 74.9243 10.5819Z" fill="#F8FBF9"/>
<path d="M85.5287 12.6216C85.9092 11.2157 87.5597 11.3107 88.7082 11.4929C89.0782 12.0533 89.3787 12.6464 89.5982 13.2909C88.7932 13.7711 87.9332 14.1375 87.0672 14.4889C86.4642 13.9978 85.0442 13.7008 85.5287 12.6216Z" fill="#030207"/>
<path d="M41.8444 11.9874C44.0399 10.9191 47.0399 11.6468 48.1884 13.8637C49.2234 16.0973 49.2789 19.0765 47.4039 20.8934C46.0289 22.3983 43.6794 22.23 41.8699 21.7944C38.0599 20.1409 38.0094 13.6513 41.8444 11.9874Z" fill="#F8FBF6"/>
<path d="M42.4593 14.5621C43.5303 13.375 45.7598 14.1414 45.9488 15.6958C46.1083 16.978 46.3583 18.7453 44.9488 19.4681C43.9633 19.6022 42.6393 19.7206 42.1783 18.6166C41.5738 17.3933 41.4548 15.5963 42.4593 14.5621Z" fill="#020103"/>
<path d="M11.1348 16.4188C11.8543 15.6228 12.7453 15.1119 13.8503 15.3297C13.8448 16.2307 13.9858 17.3 13.1003 17.8644C12.3153 18.0525 11.5098 18.0673 10.7148 18.1376C10.8293 20.0277 10.8048 21.9238 10.9698 23.8104C11.3103 24.2312 11.6548 24.6574 12.0003 25.0871C11.0548 26.3555 10.0853 28.0233 8.23029 27.8802C8.56029 25.8688 9.67579 23.6074 8.30079 21.7416C7.49079 22.9936 5.36079 22.8109 4.56129 21.6485C3.41629 20.3565 3.65579 18.0792 5.12629 17.1134C6.86479 15.8639 9.14979 16.6317 11.1348 16.4188Z" fill="#F2FAF9"/>
<path d="M5.67969 20.3192C5.89019 19.5182 5.75469 18.4429 6.71019 18.1018C7.35519 17.9677 8.01069 17.9038 8.67569 17.9038C8.72069 18.8692 8.78569 19.8395 8.87519 20.8147C7.87019 20.3296 6.75469 20.3934 5.67969 20.3192Z" fill="#030408"/>
<path d="M13.0999 17.8638C13.4644 17.9979 14.1939 18.2608 14.5649 18.3895C14.7499 19.4192 14.7609 20.4737 14.8409 21.5232C15.9659 20.9578 17.1214 20.7554 18.2299 21.4786C18.3444 22.4341 18.4454 23.3885 18.5199 24.3504C18.8239 24.7747 19.1344 25.2063 19.4454 25.641C18.8859 26.291 18.3099 26.9242 17.7059 27.537C17.3454 27.4672 16.6319 27.3291 16.2709 27.2593C16.7959 25.8187 17.1999 24.141 16.2259 22.7796C15.7604 22.9425 15.3199 23.1643 14.8819 23.3831C14.8924 24.0717 14.9209 24.7697 14.9719 25.4628C15.3264 26.037 15.6964 26.6063 16.0864 27.1648C14.8964 27.3281 13.6969 27.4321 12.4964 27.4573C12.4709 27.2687 12.4214 26.8885 12.3964 26.6945C12.7064 26.2252 13.0164 25.7638 13.3114 25.295C12.9469 23.7752 12.9709 22.2058 12.9669 20.6558C11.1849 20.2455 12.7649 18.8192 13.0999 17.8638Z" fill="#F2F9F8"/>
<path d="M21.4089 20.8742C22.9399 20.5738 25.0399 20.7059 25.3984 22.5822C25.9984 24.7203 23.1184 24.4535 21.7684 24.5124C21.8394 24.7292 21.9839 25.1648 22.0584 25.3837C23.2144 25.3594 24.2774 24.8544 25.4184 24.7252C25.8039 27.4287 21.0689 27.8396 20.3284 25.4386C19.4244 23.8242 20.1449 22.0371 21.4089 20.8742Z" fill="#F1FBF9"/>
<path d="M31.6937 25.4381C32.7387 25.5916 33.6831 24.2649 34.6681 25.0163C36.0091 26.1302 36.8237 27.9074 36.7592 29.646C36.3187 30.0069 35.8132 30.2649 35.3187 30.5371C34.0582 29.4965 32.7931 28.4084 31.2246 27.8743C30.6136 28.0911 29.9997 28.3094 29.3946 28.5322C29.3147 29.2748 28.4797 30.2703 29.4947 30.7144C32.0942 32.2055 35.2697 32.5371 37.6502 34.4728C39.0597 36.3396 39.5507 38.6658 39.3252 40.9619C37.8252 46.6698 29.7511 48.2193 25.5906 44.4376C22.9901 42.3139 22.9657 37.4277 26.0957 35.7683C27.7352 34.7644 30.1307 34.7782 31.3762 36.3871C31.1462 36.9277 30.9222 37.4713 30.6967 38.0158C29.5821 38.3931 28.2172 38.4515 27.4467 39.4416C27.0612 40.8376 27.6321 42.5025 29.0521 43.0762C30.9321 43.897 33.4811 43.7089 34.9671 42.2099C36.6461 40.3139 36.1427 36.9921 33.8667 35.7797C31.6322 34.6064 29.0267 34.2005 26.9177 32.7748C25.2622 31.6411 24.9776 29.2055 26.1736 27.6475C27.3296 25.8248 29.6247 25.1614 31.6937 25.4381Z" fill="#F8FCF9"/>
<path d="M83.9896 27.924C85.3541 26.717 87.4041 27.924 88.7991 26.7755C89.0546 26.7755 89.5691 26.7705 89.8246 26.7705C90.5036 27.8309 91.0291 28.9834 91.4551 30.1764C90.0051 31.4685 88.5291 30.1467 87.2501 29.3497C87.0201 29.3804 86.5506 29.4284 86.3206 29.4586C86.3151 29.8448 86.3101 30.2359 86.3151 30.6319C87.9601 31.3745 89.9711 31.5626 91.2751 32.9101C92.2701 33.9596 91.5601 35.3854 91.2701 36.5839C89.9551 37.7027 88.2751 38.0096 86.5906 37.7116C85.9856 38.0042 85.3461 38.5779 84.6301 38.2769C83.4401 37.2868 82.6701 35.8264 82.7211 34.2715C84.5361 33.3264 85.9366 35.0789 87.5506 35.6225C88.7411 36.0977 88.4766 34.6378 88.6161 34.0032C86.9201 33.4636 85.2011 32.9626 83.6106 32.1571C83.4311 31.87 83.0706 31.2963 82.8916 31.0096C82.8701 29.8888 83.0946 28.6913 83.9896 27.924Z" fill="#F7FAF9"/>
<path d="M64.1737 29.5917C65.5592 28.7798 67.2647 27.8987 68.8497 28.7798C71.9037 30.4818 72.2747 35.0719 70.3042 37.7244C69.3297 39.2442 67.0232 39.6942 65.5687 38.6011C64.7137 38.1655 64.6432 36.7784 65.4092 36.2298C66.1247 36.1259 66.8547 36.0813 67.5887 36.0917C68.7537 34.9828 69.0542 33.4383 68.2932 32.0076C68.0132 31.814 67.4532 31.4284 67.1737 31.2348C66.1032 31.2452 64.7447 31.5071 64.4982 32.7397C64.3132 34.3932 64.4382 36.067 64.5037 37.7294C64.4782 38.6853 65.4637 39.1556 65.9092 39.9036C66.1397 40.6794 65.3837 41.2105 64.9887 41.7699C64.0232 42.6868 62.9947 44.0323 61.4782 43.6323C60.8682 42.2709 61.7282 40.8556 61.6882 39.464C61.5977 37.2303 61.3027 35.0135 61.3637 32.7808C60.8782 32.5472 60.3947 32.3195 59.9182 32.0917C59.8732 31.814 59.7827 31.2596 59.7432 30.9828C60.7227 29.9343 61.7932 28.7551 63.3332 28.6378C63.5442 28.8744 63.9642 29.3541 64.1737 29.5917Z" fill="#F8FCF9"/>
<path d="M74.1452 29.052C76.1957 27.0015 80.2702 27.3926 81.5547 30.1119C82.0602 31.1664 82.3752 32.9931 81.0347 33.5525C79.3752 34.4084 77.4802 34.1565 75.6902 34.1713C75.7357 34.4238 75.8352 34.9386 75.8857 35.1911C77.8607 36.6367 79.7067 34.5872 81.7712 34.6565C81.8112 35.2753 81.9412 35.9045 81.8617 36.5327C81.1222 37.8411 79.5122 38.152 78.2022 38.6169C75.7167 38.6515 73.2127 37.0733 72.8217 34.5327C72.2452 32.6357 72.7652 30.4877 74.1452 29.052Z" fill="#F8FBF9"/>
<path d="M50.5249 30.8991C51.7854 29.0031 54.4054 28.8887 56.3999 29.4645C58.8799 30.3704 59.3654 33.3066 59.2894 35.6021C58.8544 36.9437 58.2944 38.459 56.9144 39.1179C55.5794 39.8907 53.9994 39.5932 52.5339 39.6467C49.3394 38.0868 48.3344 33.6615 50.5249 30.8991Z" fill="#F9FDF8"/>
<path d="M41.8344 30.6955C42.7599 29.8836 44.0144 29.6866 45.1589 29.3599C46.2134 29.7252 47.4234 29.9341 48.2334 30.7609C48.8384 31.5678 48.6784 32.8193 47.7279 33.3094C46.3634 32.7643 45.0129 32.0381 43.4924 32.2693C42.6379 33.7693 42.2569 36.0019 43.8479 37.1693C45.5469 37.996 47.1479 36.298 48.9024 36.5653C48.9364 37.446 49.3569 38.6495 48.3764 39.1985C47.0469 40.4559 45.0614 40.5292 43.3624 40.1831C39.5999 38.8346 38.8144 33.1613 41.8344 30.6955Z" fill="#F7FCF8"/>
<path d="M76.0599 30.4038C77.3349 30.1167 79.2049 29.8108 79.2994 31.6316C77.9554 32.0128 76.5639 32.1994 75.1689 32.2697C75.4549 31.6415 75.7544 31.0227 76.0599 30.4038Z" fill="#03080A"/>
<path d="M53.0542 31.8199C53.9037 31.4338 54.8442 31.7105 55.7297 31.8249C56.3857 33.0729 56.9052 34.5174 56.3297 35.909C55.8097 37.6268 52.9692 37.6664 52.3797 35.9536C52.1742 34.5768 51.8747 32.859 53.0542 31.8199Z" fill="#040304"/>
</g>
<defs>
<clipPath id="clip0_2500_966">
<rect width="97" height="50" fill="white"/>
</clipPath>
</defs>
</svg>